<?xml version="1.0" encoding="iso-8859-1"?>
<!-- Generator: Adobe Illustrator 16.0.0, SVG Export Plug-In . SVG Version: 6.00 Build 0)  -->
<!DOCTYPE svg PUBLIC "-//W3C//DTD SVG 1.1//EN" "http://www.w3.org/Graphics/SVG/1.1/DTD/svg11.dtd">
<svg version="1.1" id="Capa_1" xmlns="http://www.w3.org/2000/svg" xmlns:xlink="http://www.w3.org/1999/xlink" x="0px" y="0px"
	 width="533.333px" height="533.333px" viewBox="0 0 533.333 533.333" style="enable-background:new 0 0 533.333 533.333;"
	 xml:space="preserve">
<g>
	<path d="M158.333,300c0,59.831,48.502,108.333,108.333,108.333S375,359.831,375,300s-48.502-108.333-108.333-108.333
		S158.333,240.169,158.333,300z M500,116.667H383.333C375,83.333,366.667,50,333.333,50H200c-33.333,0-41.667,33.333-50,66.667
		H33.333C15,116.667,0,131.667,0,150v300c0,18.333,15,33.333,33.333,33.333H500c18.333,0,33.334-15,33.334-33.333V150
		C533.333,131.667,518.333,116.667,500,116.667z M266.667,447.917c-81.692,0-147.917-66.224-147.917-147.917
		c0-81.692,66.224-147.917,147.917-147.917c81.693,0,147.917,66.224,147.917,147.917
		C414.583,381.693,348.361,447.917,266.667,447.917z M500,216.667h-66.666v-33.333H500V216.667z"/>
</g>
<g>
</g>
<g>
</g>
<g>
</g>
<g>
</g>
<g>
</g>
<g>
</g>
<g>
</g>
<g>
</g>
<g>
</g>
<g>
</g>
<g>
</g>
<g>
</g>
<g>
</g>
<g>
</g>
<g>
</g>
</svg>
