<?xml version="1.0" encoding="iso-8859-1"?>
<!-- Generator: Adobe Illustrator 16.0.0, SVG Export Plug-In . SVG Version: 6.00 Build 0)  -->
<!DOCTYPE svg PUBLIC "-//W3C//DTD SVG 1.1//EN" "http://www.w3.org/Graphics/SVG/1.1/DTD/svg11.dtd">
<svg xmlns="http://www.w3.org/2000/svg" xmlns:xlink="http://www.w3.org/1999/xlink" version="1.1" id="Capa_1" x="0px" y="0px" width="512px" height="512px" viewBox="0 0 381.924 381.924" style="enable-background:new 0 0 381.924 381.924;" xml:space="preserve">
<g>
	<path d="M347.171,286.09c0,0,16.231-4.507,15.146-11.853c-7.1,4.344-23.716-9.82-23.716-9.82s8.174-14.188,7.625-31.633   s-2.312-34.214-2.312-34.214s9.961,11.583,22.596,0.338c-24.907-12.203-23.413-28.72-20.669-39.363   c2.722-10.638,13.522-59.764-27.687-97.58c-27.09-23.535-42.131-2.464-42.131-2.464s-3.981-6.854-8.991-6.557   c-5.009,0.315-8.583,5.733-8.583,5.733s-2.86-8.693-7.367-7.461c-4.496,1.226-5.723,5.412-5.723,5.412s-4.916-26.174-59.711-49.201   c-54.824-23.021-126.807,13.627-141.935,26.7C28.574,47.224,22.846,51.322,27.75,66.864c1.734,5.442,4.554,7.427,7.578,7.777   c-11.379,25.275-5.33,56.272-0.916,67.616c0.222,0.858,0.344,1.792,0.537,2.715c-3.229,0.49-7.836,0.093-11.566-5.179   c-1.611,7.794,6.843,9.254,12.15,9.458c0.42,5.249-0.286,10.859-3.836,16.19c-7.8,11.707-16.529,17.078-19.337,24.931   c-4.005,10.965,17.049,12.88,17.049,12.88l0.053,4.169c0,0-6.744,6.539-5.313,11.654c1.915,6.819,15.473,4.391,15.473,4.391   s-13.021,4.799-12.419,11.151c0.619,6.341,6.061,9.097,6.061,9.097s-12.605,24.779,5.943,30.244   c18.543,5.441,56.173-17.189,61.077,9.26c4.735,18.239,25.854,63.045,18.532,71.451c-7.316,8.385-18.532,21.253-18.532,21.253   l192.497,6.002c0,0-59.448-76.905-65.438-85.616c-3.199-4.647,3.83-8.524,14.375-14.748c3.725,18.847,14.433,58.712,40.426,75.293   c34.623,22.082,52.617,2.441,51.531-5.312c-18.543,11.584-22.49-10.649-22.49-10.649s30.933,9.692,31.902-9.399   C317.863,339.677,312,292.641,312,292.641s48.938,50.854,58.07-2.452C354.131,308.055,347.171,286.09,347.171,286.09z" fill="#3688c2"/>
</g>
<g>
</g>
<g>
</g>
<g>
</g>
<g>
</g>
<g>
</g>
<g>
</g>
<g>
</g>
<g>
</g>
<g>
</g>
<g>
</g>
<g>
</g>
<g>
</g>
<g>
</g>
<g>
</g>
<g>
</g>
</svg>
